<svg width="33" height="33" viewBox="0 0 33 33" fill="none" xmlns="http://www.w3.org/2000/svg">
<rect x="0.983887" y="0.962891" width="32" height="32" rx="8" fill="#ABFF44"/>
<path d="M26.8517 18.229C26.6459 17.8166 26.3887 17.4043 26.1829 16.9404C26.7488 15.9611 27.2118 14.9818 27.6234 13.9509C28.7038 10.9099 28.498 8.4358 27.006 6.94105C25.5141 5.44631 22.9931 5.24014 19.9577 6.32254C18.9288 6.68334 17.8998 7.19877 16.9738 7.76574C12.9094 5.34322 9.05089 4.87934 6.993 6.9926C4.9351 9.10586 5.34668 12.8685 7.76471 16.9404C7.55892 17.3012 7.35313 17.6104 7.19879 17.9712C5.29523 21.6823 5.08944 25.0326 6.993 26.9397C7.9705 27.8675 9.25668 28.3314 10.5429 28.2798C12.395 28.2283 14.1956 27.7129 15.842 26.7851C16.7166 26.3212 17.5397 25.8573 18.3114 25.2903C19.7005 24.311 20.9352 23.2802 22.1185 22.0947C22.7359 21.4762 23.3533 20.8061 23.9192 20.1361C24.1764 19.8783 24.3822 19.5691 24.588 19.2598C24.7938 19.6722 24.9996 20.1361 25.1539 20.5999C25.1539 20.6515 25.2054 20.703 25.2054 20.8061C25.5141 21.6308 25.7199 22.507 25.7199 23.3833C25.7713 24.0018 25.5655 24.6718 25.1539 25.1357C24.3822 25.9089 22.7874 25.9089 20.7809 25.1873C20.7295 25.1873 20.6266 25.1357 20.5751 25.1357C20.1121 25.4965 19.6491 25.8573 19.2375 26.1666C18.8774 26.4243 18.5687 26.6305 18.2085 26.8366C18.7745 27.1459 19.3404 27.3521 19.9577 27.6098C21.0381 28.0221 22.2214 28.2798 23.4047 28.2798C24.0735 28.2798 24.7424 28.1768 25.4112 27.9706C25.9771 27.7644 26.543 27.4036 26.9546 26.9913C28.4466 25.4965 28.7038 22.9709 27.572 19.9814C27.3662 19.3629 27.1604 18.7959 26.8517 18.229ZM20.8324 8.69351C22.7874 7.97191 24.4337 7.97191 25.2054 8.74506C25.9771 9.5182 25.9771 11.116 25.2568 13.1262C25.051 13.6416 24.8453 14.1571 24.588 14.621C23.8163 13.6416 22.9931 12.7139 22.1185 11.7861C21.5526 11.2191 20.9352 10.6521 20.3179 10.1367C19.9577 9.82746 19.6491 9.56974 19.2889 9.31203C19.8034 9.10586 20.3179 8.84814 20.8324 8.69351ZM8.74221 25.1873C7.91905 24.3626 7.9705 22.6101 8.8451 20.4453C8.99945 20.0845 9.15379 19.7237 9.35958 19.3114C9.61682 19.6722 9.9255 20.033 10.2342 20.3422C10.7487 20.9092 11.2631 21.5277 11.8291 22.0947C12.7037 22.9709 13.6297 23.7956 14.6072 24.5687C14.1956 24.7749 13.8355 24.9295 13.4239 25.0842C11.3146 25.9604 9.56537 26.0119 8.74221 25.1873ZM20.3179 20.3422C19.2889 21.3731 18.1571 22.3524 16.9223 23.1771C14.8645 21.7339 13.0638 20.033 11.5204 18.0228C11.2117 17.662 10.9544 17.3012 10.7487 16.9404C11.5718 15.7549 12.5493 14.621 13.5783 13.5386C14.35 12.7654 15.1217 12.0953 15.9963 11.4253C15.2246 10.9099 14.4529 10.446 13.6297 10.0852C13.0123 10.6006 12.395 11.1676 11.8291 11.7345C10.9544 12.6108 10.1313 13.5386 9.35958 14.5179C8.02195 11.8376 7.81615 9.62129 8.74221 8.64197C9.20523 8.22963 9.87405 8.02346 10.4914 8.075C12.858 8.075 16.768 9.93055 20.3179 13.487C21.3468 14.5179 22.3243 15.6518 23.1475 16.8373C22.9417 17.1466 22.7359 17.4558 22.4787 17.7651C21.8099 18.7444 21.0896 19.5691 20.3179 20.3422Z" fill="#212433"/>
<path d="M17.7015 20.191C19.4669 19.904 20.6658 18.2374 20.3793 16.4687C20.0928 14.7 18.4293 13.4989 16.6639 13.7859C14.8985 14.073 13.6996 15.7395 13.9861 17.5082C14.2726 19.2769 15.936 20.4781 17.7015 20.191Z" fill="#212433"/>
<path d="M17.445 18.6077C18.3374 18.4626 18.9434 17.6202 18.7986 16.7262C18.6537 15.8321 17.8129 15.225 16.9205 15.3701C16.0281 15.5152 15.4221 16.3576 15.5669 17.2516C15.7118 18.1457 16.5526 18.7528 17.445 18.6077Z" fill="#ABFF44"/>
</svg>
